# xmcd CD database file
#
# Track frame offsets:
#	150
#	7177
#	22370
#	56457
#	76566
#	92194
#
# Disc length: 1521 seconds
#
# Revision: 0
# Processed by: cddbd v1.5.1PL2 Copyright (c) Steve Scherf et al.
# Submitted via: CDex 1.51
#
DISCID=4205ef06
DTITLE=甘栗 - 色即是空　〜shiki-soku-ze-ku〜
DYEAR=1900
DGENRE=Hip-Hop
TTITLE0=所信表明
TTITLE1=ラブソング
TTITLE2=Taboo!Auction〜ネットの世界の無法地帯〜
TTITLE3=企業戦士
TTITLE4=脱税 I like it
TTITLE5=Taboo!Auction〜ネットの世界の無法地帯〜(RocketPunchersRemix)
EXTD=
EXTT0=
EXTT1=
EXTT2=
EXTT3=
EXTT4=
EXTT5=
PLAYORDER=
